<svg width="250" height="58" viewBox="0 0 250 58" fill="none" xmlns="http://www.w3.org/2000/svg">
<g clip-path="url(#clip0_25_22)">
<rect width="250" height="57.1429" fill="#ECEFF4"/>
<path d="M127.045 51.7898C135.926 55.7368 142.734 56.5262 149.642 59.0588C156.549 61.5914 158.259 61.427 162.338 64.5845C166.416 67.7421 168.291 67.9395 169.607 71.4588C170.922 74.9782 171.81 85.2075 171.81 85.2075L174.211 85.4706" stroke="#DADBDC" stroke-width="0.93234" stroke-miterlimit="10"/>
<path d="M166.745 85.668C166.745 85.668 169.278 77.4451 167.403 73.9587C165.528 70.4722 163.456 65.3411 157.865 63.4005C152.273 61.4928 132.439 53.5989 132.439 53.5989" stroke="#DADBDC" stroke-width="0.93234" stroke-miterlimit="10"/>
<path d="M155.595 81.9513C156.68 80.1751 157.568 78.5306 157.897 77.6425C161.581 67.7751 155.825 65.1438 147.306 61.427L128.69 53.9607" stroke="#DADBDC" stroke-width="0.93234" stroke-miterlimit="10" stroke-dasharray="4.13 4.13"/>
<path d="M126.782 53.237L124.973 52.4805" stroke="#DADBDC" stroke-width="0.93234" stroke-miterlimit="10"/>
<path d="M121.782 52.4148C133.853 57.2498 144.017 61.8217 146.878 64.0912C149.74 66.3936 153.227 70.0775 152.042 72.5772C150.825 75.0441 145.859 83.3656 137.932 89.2532C130.005 95.1407 115.303 102.739 115.303 102.739" stroke="#DADBDC" stroke-width="0.93234" stroke-miterlimit="10"/>
<path d="M-2.67871 59.9468C9.39243 58.368 21.4965 56.7563 33.5676 55.1776C42.843 53.9606 52.1184 52.7436 61.4595 52.0529C75.3068 51.0332 89.2199 51.2635 103.133 51.4608C119.513 51.6911 135.893 51.9542 152.273 52.1844C185.361 52.6778 218.746 53.2041 250.881 61.098" stroke="#DADBDC" stroke-width="0.93234" stroke-miterlimit="10"/>
<path d="M4.52456 58.368C3.37337 42.8762 6.59672 27.3514 5.57709 11.8596C11.4975 11.5307 17.3851 11.2018 23.3056 10.8728C23.7003 10.84 24.1607 10.84 24.4896 11.1031C24.8186 11.3662 24.9172 11.7938 24.983 12.1885C26.792 20.8061 28.5682 29.4565 28.8642 38.2385C29.0615 43.6327 28.6669 49.0927 29.7523 54.3882" stroke="#DADBDC" stroke-width="0.93234" stroke-miterlimit="10"/>
<path d="M8.17554 16.0041C8.20843 16.9908 8.24132 18.0104 8.27421 18.9972C8.27421 19.359 8.3071 19.7866 8.57023 20.0497C8.86626 20.3457 9.29385 20.3457 9.68854 20.3457C10.1819 20.3457 10.7082 20.3457 11.2015 20.3457C11.4647 20.3457 11.7607 20.3457 11.9909 20.1813C12.3527 19.9181 12.3856 19.4248 12.3856 18.9972C12.3856 18.2407 12.3527 17.4842 12.3527 16.7277C12.3527 16.3659 12.3199 15.9712 12.1225 15.7081C11.5305 14.9187 10.2806 15.5765 9.35963 15.3134" stroke="#DADBDC" stroke-width="0.93234" stroke-miterlimit="10"/>
<path d="M15.0828 15.1489C15.0828 16.5962 15.0828 18.0763 15.0828 19.5235C15.0828 19.7208 15.0828 19.9182 15.2143 20.0827C15.3788 20.28 15.6748 20.28 15.9379 20.2471C17.6154 20.1155 19.2929 19.8853 20.9374 19.5893C21.0361 19.5564 21.1348 19.5564 21.2335 19.4906C21.365 19.359 21.3321 19.1288 21.2663 18.9643C20.8717 17.5829 20.477 16.1686 20.0823 14.7871C20.0494 14.6556 19.9836 14.4911 19.8849 14.4253C19.7862 14.3267 19.6218 14.3267 19.4902 14.3267C18.5693 14.3267 17.6812 14.3267 16.7602 14.3267" stroke="#DADBDC" stroke-width="0.93234" stroke-miterlimit="10"/>
<path d="M8.89917 23.5361C9.12941 24.9833 9.35965 26.4305 9.58989 27.8777C9.62278 28.0422 9.65567 28.2067 9.75435 28.3053C9.88591 28.4698 10.0833 28.5027 10.2806 28.5356C12.1225 28.9632 14.0302 29.1276 15.9379 29.0289C15.905 27.7791 15.8721 26.5621 15.8064 25.3122C15.8064 24.8846 15.7735 24.4241 15.5432 24.0623C15.1485 23.3716 14.2276 23.2401 13.4382 23.3058C12.6488 23.3716 11.8594 23.569 11.1029 23.3387" stroke="#DADBDC" stroke-width="0.93234" stroke-miterlimit="10"/>
<path d="M18.2732 22.6809C18.1745 24.457 18.2403 26.2332 18.4047 28.0093C19.6546 28.5027 21.036 28.6671 22.3188 28.404C22.4833 28.3711 22.6806 28.3382 22.7793 28.2066C23.0095 27.9764 22.9766 27.6146 22.9437 27.3186C22.7135 25.8385 22.4833 24.3255 22.253 22.8453C22.2201 22.7138 22.2201 22.5822 22.1215 22.4506C22.0228 22.3191 21.8254 22.2533 21.6281 22.2204C21.1018 22.1546 20.5756 22.1546 20.0822 22.2533" stroke="#DADBDC" stroke-width="0.93234" stroke-miterlimit="10"/>
<path d="M10.0833 31.3971C10.1819 33.3377 10.2477 35.3112 10.3464 37.2518C10.3464 37.4491 10.3793 37.6465 10.4779 37.778C10.6095 37.9425 10.8398 38.0083 11.0371 38.0412C12.7475 38.403 14.5236 38.5017 16.2668 38.403C16.4313 38.403 16.6286 38.3701 16.7273 38.2385C16.826 38.1398 16.826 38.0083 16.826 37.8767C16.9247 36.5282 17.0233 35.1796 17.0891 33.8311C17.122 33.239 17.1549 32.5812 16.8918 32.0549C16.3655 31.0682 15.0827 30.9037 13.9644 30.8708C13.2737 30.8708 12.583 30.8708 11.8923 30.8708C11.3331 30.8708 10.6095 31.0024 10.4122 31.5287" stroke="#DADBDC" stroke-width="0.93234" stroke-miterlimit="10"/>
<path d="M19.4573 31.726C19.5888 33.2061 19.7533 34.6862 19.8849 36.1663C19.9178 36.6268 19.9835 37.1531 20.3125 37.482C20.6085 37.778 21.0032 37.8767 21.3979 37.9425C22.5491 38.1398 23.7003 38.1398 24.8515 37.9754C25.2791 37.9096 25.7724 37.778 25.9369 37.3833C26.0356 37.1531 26.0027 36.9228 25.9698 36.6926C25.904 36.2321 25.8711 35.8045 25.8053 35.344C25.7066 34.456 25.5751 33.535 25.2462 32.7127C24.8844 31.8904 24.2594 31.1339 23.4042 30.8379C22.3188 30.4761 21.1347 30.9037 20.0822 31.3313" stroke="#DADBDC" stroke-width="0.93234" stroke-miterlimit="10"/>
<path d="M20.3783 10.8073C20.2138 7.78125 20.0822 4.75524 19.9178 1.72923C19.8849 1.03851 19.9178 0.21623 20.4769 -0.178467C21.0361 0.67671 21.2005 1.66345 21.3321 2.68308C21.6939 5.21572 21.8255 7.74836 21.7597 10.3139" stroke="#DADBDC" stroke-width="0.93234" stroke-miterlimit="10"/>
<path d="M19.8521 54.6842C20.0823 52.9739 19.8849 51.2306 19.9178 49.5203C19.9507 47.8099 20.2796 46.0009 21.3651 44.6524C21.6282 44.3235 21.99 43.9945 22.4176 43.9945C23.1741 43.9616 23.6017 44.8497 23.799 45.5733C24.4568 48.1717 24.5884 50.8688 24.6542 53.533" stroke="#DADBDC" stroke-width="0.93234" stroke-miterlimit="10"/>
<path d="M29.6538 40.1134C32.6469 40.1463 35.64 40.1463 38.6332 40.0147C40.5409 39.9161 40.6395 40.0476 40.7382 38.107C40.804 36.4296 40.804 34.7521 40.8369 33.1075C40.9027 26.6937 40.8369 20.3128 40.5738 13.899C40.5409 13.4714 48.5006 12.7807 49.3229 11.8926C50.9345 10.2151 49.9149 5.64322 49.6847 3.63685C49.6189 3.11059 49.6189 2.41987 50.1123 2.22252C50.4741 2.05806 50.9017 2.2883 51.099 2.65011C51.2964 2.97902 51.3292 3.37372 51.3621 3.76841C51.4937 6.13659 51.5266 8.50477 51.4608 10.8401C51.0661 24.2598 53.7303 38.4359 54.3553 51.8556" stroke="#DADBDC" stroke-width="0.93234" stroke-miterlimit="10"/>
<path d="M46.198 18.3392C46.2967 18.9312 46.2309 19.5562 46.2638 20.1482C46.2967 20.7403 46.3953 21.3981 46.79 21.8586C47.1847 22.3191 47.9083 22.5493 48.4017 22.1875C48.7306 21.9573 48.8951 21.4968 48.9938 21.1021C49.224 20.1482 49.3227 19.1615 49.2898 18.2076C48.5004 18.1747 47.711 18.3063 46.9545 18.5366" stroke="#DADBDC" stroke-width="0.93234" stroke-miterlimit="10"/>
<path d="M33.0086 42.7119C35.6071 42.5474 38.1726 42.383 40.771 42.2185C40.5737 43.4355 40.3763 44.6525 40.179 45.8695C37.6792 45.6063 35.1795 45.3432 32.6797 45.0472C32.6797 44.2249 32.6468 43.4026 32.5811 42.5803" stroke="#DADBDC" stroke-width="0.93234" stroke-miterlimit="10"/>
<path d="M42.909 42.1197C42.8762 43.0078 42.8762 43.9288 42.8433 44.8168C45.343 45.4746 48.0072 45.0142 50.5398 44.5208C50.6385 43.6656 50.6056 42.7776 50.4412 41.9553C48.4348 41.7908 46.3955 41.725 44.3892 41.8237" stroke="#DADBDC" stroke-width="0.93234" stroke-miterlimit="10"/>
<path d="M48.7635 38.2715C48.8293 34.0285 46.3624 29.8842 47.2505 25.7399C47.9741 25.707 48.6977 25.707 49.4213 25.6741C50.112 28.8645 50.2436 32.1208 50.3752 35.377C50.4081 36.4953 50.4738 37.6136 50.5067 38.732C50.5067 38.8964 50.5067 39.0938 50.3752 39.2253C50.2436 39.3569 50.0462 39.324 49.8489 39.324C49.3226 39.2582 48.7635 39.1924 48.2372 39.1267" stroke="#DADBDC" stroke-width="0.93234" stroke-miterlimit="10"/>
<path d="M53.9604 38.0083C59.1902 38.3372 64.4199 38.699 69.6496 39.0279C69.7483 42.7447 69.7154 46.4285 69.551 50.1452" stroke="#DADBDC" stroke-width="0.93234" stroke-miterlimit="10"/>
<path d="M75.3728 49.7835C77.6423 37.4821 73.6624 24.8189 74.9452 12.3859C71.5903 11.465 68.2025 10.7743 64.7489 10.3467C65.308 14.3923 65.7027 18.4709 65.8672 22.5823C64.716 22.5823 63.5648 22.5494 62.4136 22.5494C62.4465 26.7924 62.4465 31.0354 62.4794 35.2784" stroke="#DADBDC" stroke-width="0.93234" stroke-miterlimit="10"/>
<path d="M80.1421 50.507C80.5368 48.3033 80.5039 46.0338 80.4381 43.7643C80.3394 38.0741 80.2408 32.4168 80.1421 26.7266C85.5692 27.4831 90.9962 28.2067 96.3904 28.9632C96.226 36.298 96.3247 43.6327 96.6536 50.9675" stroke="#DADBDC" stroke-width="0.93234" stroke-miterlimit="10"/>
<path d="M105.863 50.4742C104.876 37.2518 103.857 24.0295 102.87 10.7742C102.837 10.4124 102.804 9.98485 103.002 9.65594C103.298 9.09678 104.021 8.96522 104.679 8.86654C107.837 8.53763 110.994 8.37317 114.185 8.40606C114.251 9.98485 114.316 11.5636 114.415 13.1424C114.974 13.8003 116.158 13.4384 116.619 12.7148C117.079 11.9912 117.013 11.0374 116.948 10.1822C116.75 7.55089 116.553 4.91958 116.356 2.25537C118.987 1.59754 121.717 1.4002 124.414 1.63044C126.091 18.1419 127.933 34.6205 129.841 51.0991" stroke="#DADBDC" stroke-width="0.93234" stroke-miterlimit="10"/>
<path d="M142.57 50.836C144.543 35.7717 140.86 20.5759 140.136 5.3801C140.103 4.88673 140.103 4.36046 140.399 3.96577C140.629 3.63685 141.024 3.4724 141.386 3.30794C145.991 1.33446 151.089 0.610844 156.055 1.23578C156.253 1.26867 156.483 1.30156 156.615 1.43313C156.812 1.59759 156.845 1.89361 156.845 2.12385C157.305 9.03104 157.766 15.9382 158.259 22.8783C159.312 22.8454 160.364 22.5494 161.318 22.056C161.45 24.9505 161.614 27.8449 161.746 30.7065C162.831 30.6736 163.949 30.838 164.969 31.2327C165.002 37.1203 165.199 43.0079 165.594 48.8954C165.627 49.4875 166.12 50.3097 166.581 49.9479" stroke="#DADBDC" stroke-width="0.93234" stroke-miterlimit="10"/>
<path d="M104.679 33.897C102.015 34.2259 99.3175 34.5548 96.6533 34.8837" stroke="#DADBDC" stroke-width="0.93234" stroke-miterlimit="10"/>
<path d="M80.3722 30.575C79.4841 30.5092 78.4645 30.3448 78.0698 29.5554C77.8724 29.1607 77.8724 28.7002 77.9053 28.2726C78.0369 25.0164 77.9711 21.7601 77.7738 18.5039C76.7212 18.471 75.6358 18.8657 74.8464 19.5564C75.0109 19.6551 75.1753 19.7537 75.3398 19.8524" stroke="#DADBDC" stroke-width="0.93234" stroke-miterlimit="10"/>
<path d="M127.703 27.0884C131.025 28.7987 134.182 30.8051 137.208 33.0088C137.472 33.2062 137.702 33.3706 137.866 33.6338C138.162 34.1271 138.064 34.7521 138.097 35.3112C138.129 35.8704 138.425 36.5611 138.985 36.6269C139.412 36.6598 139.873 36.3638 140.202 36.6598C140.333 36.7913 140.366 36.9887 140.399 37.1532C140.498 37.7123 140.596 38.3043 140.695 38.8635C141.451 38.9293 142.208 39.1595 142.899 39.5213" stroke="#DADBDC" stroke-width="0.93234" stroke-miterlimit="10"/>
<path d="M165.627 40.7713C166.844 40.6726 168.028 40.541 169.245 40.4423C169.212 30.4763 169.179 20.5102 169.146 10.5441C169.146 10.2152 169.146 9.88624 169.311 9.62311C169.508 9.32708 169.87 9.16262 170.232 9.03106C173.85 7.78119 177.665 7.15625 181.48 7.15625C181.447 8.76793 181.678 10.4125 182.171 11.9584C183.289 11.9584 184.408 11.9584 185.559 11.9913C185.362 14.2279 185.559 16.5303 186.118 18.7011C186.677 18.3722 187.434 18.6682 187.796 19.1945C188.157 19.7208 188.223 20.3786 188.289 21.0364C188.815 26.3319 189.341 31.5946 189.868 36.8901C189.21 36.4625 188.124 37.1203 188.256 37.9097C188.388 38.6991 189.572 39.0609 190.098 38.436C190.46 43.1066 190.822 47.81 191.183 52.4806" stroke="#DADBDC" stroke-width="0.93234" stroke-miterlimit="10"/>
<path d="M200.294 53.3357C200.623 44.3234 199.637 35.2454 197.4 26.5292C194.999 26.0358 192.499 25.9371 190.065 26.2332" stroke="#DADBDC" stroke-width="0.93234" stroke-miterlimit="10"/>
<path d="M186.414 16.2343C190.558 16.7277 194.736 17.0237 198.88 17.0566C198.847 15.0831 199.044 13.1096 199.505 11.2019C203.814 10.281 208.254 10.0178 212.629 10.5112C213.221 12.682 213.582 14.9187 213.747 17.1882C215.885 15.9712 218.385 15.3463 220.851 15.3463C221.18 13.8661 221.542 12.3531 221.871 10.873C223.581 10.4125 225.39 10.2152 227.134 10.3797C227.528 12.4189 227.956 14.4582 228.351 16.4646C229.37 16.5961 230.423 16.6948 231.442 16.8264C232.067 25.3452 231.442 33.897 230.817 42.4159" stroke="#DADBDC" stroke-width="0.93234" stroke-miterlimit="10"/>
<path d="M205.261 52.3161C204.8 47.481 205.064 42.5473 206.017 37.7781C209.964 37.7781 213.944 37.7781 217.891 37.7781C217.595 43.238 217.332 48.7309 217.036 54.1909" stroke="#DADBDC" stroke-width="0.93234" stroke-miterlimit="10"/>
<path d="M222.956 54.9804C223.483 51.0334 223.91 47.0864 224.239 43.1395C224.239 42.975 224.272 42.8105 224.338 42.7119C224.502 42.4816 224.864 42.4487 225.16 42.4487C227.824 42.4487 230.488 42.4487 233.153 42.4816C234.172 46.9877 234.6 51.5925 234.501 56.1973" stroke="#DADBDC" stroke-width="0.93234" stroke-miterlimit="10"/>
<path d="M237.659 57.3484C236.08 44.5537 236.014 31.5945 237.429 18.7997C237.56 17.7143 237.791 16.4973 238.712 16.0039C239.172 15.7737 239.665 15.7408 240.192 15.7079C244.303 15.5106 248.513 15.3461 252.361 16.6946C252.953 16.892 253.546 17.1551 253.907 17.6814C254.236 18.1419 254.269 18.7339 254.302 19.2931C255.059 33.0088 253.052 46.7245 250.75 60.2758" stroke="#DADBDC" stroke-width="0.93234" stroke-miterlimit="10"/>
<path d="M66.1632 27.22C66.1303 28.1409 66.1303 29.0948 66.1961 30.0157C66.229 30.246 66.229 30.5091 66.3934 30.7065C66.5908 30.9696 66.9855 31.0354 67.3144 31.0683C68.7945 31.1998 70.2746 31.2327 71.7876 31.1998C71.2285 30.3118 70.8667 29.325 70.7022 28.3054C70.6693 28.0423 70.6035 27.7462 70.3733 27.6147C70.2417 27.5489 70.1102 27.5489 69.9786 27.5489C69.1563 27.5489 68.334 27.5489 67.5118 27.5489" stroke="#DADBDC" stroke-width="0.93234" stroke-miterlimit="10"/>
<path d="M70.176 14.8198C70.176 16.3986 70.176 17.9774 70.1431 19.5562C70.1431 19.7206 70.1431 19.8851 70.2417 20.0167C70.3404 20.1153 70.472 20.1482 70.6035 20.1811C71.7547 20.4443 72.9388 20.4443 74.09 20.214C73.6953 18.6352 73.3006 17.0893 72.9388 15.5105C72.9059 15.4119 72.8731 15.2803 72.8073 15.2145C72.7086 15.1158 72.577 15.1158 72.4455 15.1158C71.8534 15.1158 71.2614 15.1158 70.6693 15.1487" stroke="#DADBDC" stroke-width="0.93234" stroke-miterlimit="10"/>
<path d="M83.9574 30.5749C83.8916 31.6275 83.8258 32.68 83.76 33.7325C84.681 34.0614 85.7006 34.1601 86.6873 34.0614C86.9176 32.976 87.0492 31.6275 86.1611 30.9367C85.569 30.4763 84.7468 30.542 84.0889 30.2131C85.0428 30.2789 85.9966 30.3447 86.9505 30.4105" stroke="#DADBDC" stroke-width="0.93234" stroke-miterlimit="10"/>
<path d="M88.8252 31.2326C88.8581 32.2194 88.9239 33.2061 88.9568 34.1929C88.9568 34.2915 88.9568 34.4231 89.0554 34.5218C89.1541 34.6205 89.2857 34.6205 89.4172 34.6205C89.8119 34.6205 90.2066 34.5876 90.6013 34.5876C90.996 34.5876 91.3907 34.5547 91.6868 34.2916C92.1472 33.9297 92.1143 33.239 92.0486 32.647C92.0157 32.2852 91.9499 31.8905 91.7525 31.5945C91.5223 31.2984 91.0947 31.1011 90.7658 31.2984" stroke="#DADBDC" stroke-width="0.93234" stroke-miterlimit="10"/>
<path d="M84.2534 37.4164C84.2534 38.6334 84.2205 39.8504 84.2205 41.0674C85.7006 41.1331 87.1807 41.2318 88.6937 41.2976C88.7924 40.574 88.9239 39.8175 88.8253 39.061C88.7266 38.3374 88.3648 37.5809 87.7398 37.1862C86.9833 36.7257 86.0295 36.8244 85.1743 36.9559C85.3059 36.9559 85.4703 36.923 85.6019 36.923" stroke="#DADBDC" stroke-width="0.93234" stroke-miterlimit="10"/>
<path d="M87.6083 44.1261C87.6412 44.8497 87.6083 45.5733 87.4438 46.2969C86.7531 46.2969 86.0624 46.3298 85.4046 46.3298C85.2072 46.3298 84.977 46.3298 84.8125 46.1982C84.6152 46.0338 84.6152 45.7707 84.6152 45.5404C84.6152 45.1457 84.6152 44.7839 84.5823 44.3892C84.5823 44.2248 84.5823 43.9945 84.7138 43.8958C84.8454 43.7643 85.0099 43.7643 85.1743 43.7314C86.49 43.6327 88.6279 43.0736 89.9436 43.1064C90.6672 42.7775 91.4895 42.7117 92.246 42.8433C92.542 42.9091 92.838 43.0078 93.0025 43.2709C93.1011 43.4354 93.1011 43.6656 93.134 43.8629C93.1669 44.6195 93.1998 45.376 93.2327 46.1325C93.2327 46.264 93.2327 46.3956 93.134 46.4614C93.0683 46.5272 92.9696 46.5272 92.8709 46.5272C92.1473 46.5272 91.4566 46.3956 90.7659 46.1982C90.6343 46.1653 90.4698 46.0996 90.3712 45.968C90.2396 45.8364 90.2396 45.6062 90.2396 45.4417C90.2396 44.6852 90.2725 43.9287 90.2725 43.1722" stroke="#DADBDC" stroke-width="0.93234" stroke-miterlimit="10"/>
<path d="M106.916 14.1621C106.685 14.9844 106.948 15.9054 107.541 16.4974C108.133 17.0894 109.054 17.3526 109.876 17.1223C110.238 17.0237 110.599 16.8263 110.764 16.4974C110.895 16.2343 110.895 15.9054 110.895 15.6093C110.895 14.8528 110.764 13.9648 110.073 13.6687C109.843 13.5701 109.613 13.5701 109.382 13.5701C108.757 13.5701 108.1 13.603 107.475 13.6687" stroke="#DADBDC" stroke-width="0.93234" stroke-miterlimit="10"/>
<path d="M119.085 48.9942C119.184 47.4154 118.921 45.8037 118.362 44.3565C118.296 44.1591 118.23 43.9289 118.362 43.7973C118.461 43.6658 118.658 43.6658 118.789 43.6658C119.447 43.6658 120.138 43.6658 120.796 43.6658C120.993 43.6658 121.223 43.6658 121.388 43.7973C121.519 43.896 121.552 44.0934 121.585 44.2578C121.881 45.5735 122.111 46.922 122.276 48.2706C122.342 48.0732 122.375 47.8759 122.44 47.7114" stroke="#DADBDC" stroke-width="0.93234" stroke-miterlimit="10"/>
<path d="M120.401 39.6199C120.5 38.666 120.335 37.6793 119.908 36.8241C119.316 36.7254 118.658 36.6596 118.23 37.0543C117.868 37.4161 117.835 37.9753 117.901 38.4687C117.967 39.0936 118.164 39.7185 118.625 40.179C119.085 40.6395 119.842 40.7711 120.335 40.3435" stroke="#DADBDC" stroke-width="0.93234" stroke-miterlimit="10"/>
<path d="M114.218 33.4036C114.316 32.384 114.086 31.3315 113.593 30.4105C113.132 30.5092 112.639 30.3776 112.178 30.3447C111.718 30.3119 111.159 30.4105 110.895 30.8052C110.303 31.6933 111.652 32.9432 111.159 33.897C112.343 33.897 113.527 33.897 114.711 33.9299" stroke="#DADBDC" stroke-width="0.93234" stroke-miterlimit="10"/>
<path d="M120.796 33.0746C120.533 31.8247 120.269 30.5749 120.006 29.325C120.664 29.2592 121.322 29.2921 121.947 29.3908C122.111 29.4237 122.309 29.4566 122.375 29.621C122.44 29.7526 122.407 29.917 122.407 30.0815C122.342 30.6735 122.605 31.2656 122.539 31.8576C122.506 32.4497 121.848 33.0746 121.355 32.7457" stroke="#DADBDC" stroke-width="0.93234" stroke-miterlimit="10"/>
<path d="M146.056 15.8396C146.32 16.8592 146.418 17.9117 146.418 18.9642C146.813 19.1287 147.24 19.2932 147.668 19.2603C148.096 19.2274 148.556 18.9314 148.622 18.5038C148.688 18.1749 148.49 17.8459 148.359 17.5499C148.03 16.8592 147.865 16.1027 147.865 15.3462C147.537 15.3462 147.24 15.3462 146.912 15.3462C146.912 15.7409 146.846 16.1356 146.714 16.4974" stroke="#DADBDC" stroke-width="0.93234" stroke-miterlimit="10"/>
<path d="M153.589 31.7261C153.589 32.4497 153.589 33.1733 153.556 33.897C153.556 34.0943 153.556 34.2588 153.654 34.4232C153.819 34.6863 154.213 34.7192 154.542 34.7192C155.496 34.7192 156.45 34.7192 157.404 34.7192C157.47 33.5023 157.437 32.2524 157.272 31.0354C156.319 31.0354 155.365 31.0354 154.444 31.0354" stroke="#DADBDC" stroke-width="0.93234" stroke-miterlimit="10"/>
<path d="M176.876 15.1487C176.81 16.1354 176.744 17.1222 176.678 18.1089C176.645 18.3721 176.645 18.6352 176.777 18.8983C176.941 19.1944 177.27 19.3588 177.599 19.4575C178.421 19.7206 179.309 19.7535 180.132 19.5562C180.395 19.4904 180.658 19.3917 180.79 19.1615C180.954 18.8983 180.888 18.5694 180.79 18.2405C180.526 17.2209 180.263 16.1683 180 15.1487C179.046 15.0829 178.093 15.1158 177.172 15.2803" stroke="#DADBDC" stroke-width="0.93234" stroke-miterlimit="10"/>
<path d="M174.178 33.7326C174.178 34.9824 174.178 36.2652 174.178 37.5151C174.178 37.6466 174.178 37.8111 174.277 37.9427C174.409 38.1071 174.639 38.1071 174.803 38.0742C176.251 38.0084 177.698 37.8769 179.112 37.6795C179.277 37.6466 179.441 37.6466 179.54 37.548C179.704 37.4164 179.704 37.1533 179.704 36.923C179.704 35.706 179.671 34.4562 179.671 33.2392C178.487 33.2392 177.336 33.2392 176.152 33.2063" stroke="#DADBDC" stroke-width="0.93234" stroke-miterlimit="10"/>
<path d="M205.886 16.9907C205.82 17.7472 205.754 18.5366 205.688 19.2931C205.688 19.4247 205.688 19.5563 205.754 19.622C205.82 19.7207 205.952 19.7207 206.083 19.7536C206.741 19.8194 207.399 19.8523 208.024 19.8194C207.991 18.9642 207.991 18.109 208.057 17.2539C207.366 17.1223 206.675 17.0894 205.985 17.1552" stroke="#DADBDC" stroke-width="0.93234" stroke-miterlimit="10"/>
<path d="M223.91 29.2262C224.009 30.8379 223.877 32.4824 223.581 34.0941C224.568 34.2257 225.555 34.2915 226.542 34.3244C227.199 34.3572 228.087 34.127 228.12 33.4692C228.12 33.2389 228.022 33.0087 227.923 32.8114C227.331 31.4957 227.397 30.0156 227.462 28.5684C226.607 28.5684 225.785 28.5684 224.93 28.5684" stroke="#DADBDC" stroke-width="0.93234" stroke-miterlimit="10"/>
<path d="M194.374 30.2132C194.472 30.871 194.505 31.5617 194.472 32.2196C194.472 32.384 194.44 32.5814 194.308 32.68C194.209 32.7458 194.078 32.7458 193.946 32.7458C193.519 32.7458 193.091 32.7129 192.696 32.7129C192.532 31.8249 192.4 30.9368 192.236 30.0487C192.433 29.9172 192.729 29.8514 192.959 29.9172" stroke="#DADBDC" stroke-width="0.93234" stroke-miterlimit="10"/>
<path d="M206.84 40.1133C206.84 41.3632 206.84 42.6131 206.84 43.863C206.84 44.0274 206.84 44.1919 206.938 44.3234C207.037 44.455 207.201 44.455 207.366 44.4879C208.254 44.5537 209.175 44.4221 210.03 44.0932C210.293 42.6789 210.458 41.2316 210.556 39.7844C209.833 39.916 209.076 40.0476 208.353 40.1791" stroke="#DADBDC" stroke-width="0.93234" stroke-miterlimit="10"/>
<path d="M226.772 45.6391C226.772 46.7903 226.772 47.9415 226.772 49.0927C226.772 49.2571 226.772 49.4216 226.871 49.5203C226.969 49.6518 227.167 49.6518 227.364 49.6518C228.482 49.6518 229.601 49.4216 230.653 48.9611C230.226 47.9086 229.995 46.7574 229.995 45.6391C229.337 45.6391 228.647 45.6062 227.989 45.6062" stroke="#DADBDC" stroke-width="0.93234" stroke-miterlimit="10"/>
<path d="M229.831 51.4938C229.765 52.2503 229.699 53.0397 229.633 53.7962C230.456 53.8949 231.278 53.862 232.1 53.6647C232.166 53.0397 232.133 52.3819 232.034 51.757C232.001 51.5596 231.936 51.3623 231.837 51.2307C231.442 50.7044 230.587 51.0005 229.995 51.3623" stroke="#DADBDC" stroke-width="0.93234" stroke-miterlimit="10"/>
<path d="M240.356 21.5298C240.29 22.4179 240.224 23.3059 240.159 24.194C240.126 24.5229 240.126 24.8518 240.323 25.1149C240.488 25.3123 240.784 25.3781 241.014 25.411C241.836 25.5425 242.691 25.6083 243.514 25.5425C243.645 25.5425 243.81 25.5096 243.908 25.411C243.974 25.3123 244.007 25.1807 244.007 25.0492C244.007 24.0295 244.007 23.0428 243.974 22.0232C243.152 22.0232 242.297 22.0232 241.474 21.9903" stroke="#DADBDC" stroke-width="0.93234" stroke-miterlimit="10"/>
<path d="M242.691 30.4103C242.593 31.1011 242.527 31.7918 242.428 32.4496C243.086 32.5812 243.777 32.6141 244.435 32.5812C244.829 32.5483 245.29 32.4496 245.553 32.1536C245.915 31.6931 245.684 30.9695 245.191 30.6077C244.698 30.2459 244.106 30.1801 243.514 30.1472" stroke="#DADBDC" stroke-width="0.93234" stroke-miterlimit="10"/>
<path d="M244.007 39.0938C244.073 40.8371 244.04 42.6132 243.843 44.3564C245.257 44.5209 246.671 44.5209 248.086 44.4222C248.349 42.5474 248.579 40.6397 248.842 38.7649C247.954 38.7649 247.066 38.7649 246.178 38.7649" stroke="#DADBDC" stroke-width="0.93234" stroke-miterlimit="10"/>
<path d="M150.916 31.5026C150.838 31.401 150.749 31.318 150.773 31.1649C150.798 31.0079 150.748 30.8415 150.725 30.6301C150.452 30.8563 150.15 30.9873 150.068 31.3038C150.033 31.4419 149.945 31.5287 149.773 31.5217C149.583 30.8526 150.372 31.117 149.856 30.7172C149.784 30.6613 149.731 30.5793 149.688 30.5008C149.64 30.4117 149.772 30.3786 149.786 30.3093C149.82 30.1424 150.002 30.1192 150.11 30.0256C150.259 29.8975 150.223 29.6849 150.022 29.6591C149.803 29.631 149.633 29.5249 149.434 29.4613C149.517 29.2626 149.727 29.4001 149.859 29.305C149.688 28.6286 148.395 27.8595 147.826 26.6477C147.468 25.8843 147.179 25.6887 146.576 25.1978C146.522 25.1536 146.466 25.1302 146.471 25.0573C146.478 24.9712 146.547 24.9565 146.62 24.9606C146.968 24.9799 146.668 24.5342 146.968 24.6859C147.237 24.8221 147.142 24.4784 147.12 24.4453C147.068 24.3684 147.119 24.3296 147.178 24.2917C147.306 24.2091 147.399 24.4626 147.511 24.4658C147.735 24.3434 147.574 24.0243 147.883 23.9237C147.951 24.0321 147.874 24.2013 148.05 24.2868C148.182 24.1631 148.046 23.944 148.224 23.831C148.334 23.8495 148.328 23.9608 148.389 24.0248C148.497 24.14 148.487 24.2322 148.389 24.3627C148.281 24.5057 148.233 24.6854 148.157 24.848C148.036 25.1035 148.036 25.3364 148.269 25.5514C148.269 25.5514 149.033 26.4558 149.866 27.2835C150.502 27.916 150.333 28.0704 150.798 28.4464C151.782 29.242 151.651 29.3787 152.262 29.5255C152.275 29.3864 152.111 29.4099 152.082 29.2976C152.193 29.2689 152.346 29.2671 152.326 29.0856C152.317 29.0076 152.371 28.9138 152.564 28.9317C152.784 28.9523 153.054 28.496 152.992 28.2968C152.902 28.0049 152.975 27.8654 153.278 27.7521C153.262 27.6766 153.17 27.6757 153.128 27.6279C153.085 27.5803 152.956 27.5855 153.026 27.465C153.07 27.3873 153.112 27.3323 153.21 27.3465C153.674 27.4142 154.606 27.0369 154.706 27.0191C155.004 26.9662 155.297 26.9833 155.59 26.9554C156.577 26.8615 157.312 27.9667 157.323 28.8274C157.33 29.2985 157.525 29.4077 157.362 29.7271C157.178 30.0888 156.971 29.6341 156.859 30.1122C156.792 30.3995 156.565 30.9583 156.896 30.9588C157.632 30.9599 157.144 31.2459 158.2 31.34C159.758 31.4786 160.188 32.1981 160.622 32.448C163.843 34.2989 162.86 33.4956 164.157 34.2952C164.482 34.4955 164.868 34.5875 165.207 34.7691C165.474 34.9118 165.962 34.6002 165.967 34.3096C165.977 33.7978 165.892 33.2819 165.974 32.7752C166.054 32.2815 166.002 31.7814 166.106 31.2918C166.2 30.851 165.869 30.0246 165.873 29.5159C165.874 29.3168 165.697 29.2205 165.513 29.1985C165.353 29.1794 165.222 29.1184 165.079 29.0513C165.241 29.042 165.403 29.0327 165.573 29.0229C165.525 28.937 165.449 28.957 165.387 28.9572C165.04 28.9582 165.531 28.7945 165.233 28.7418C165.137 28.7249 165.033 28.7726 164.942 28.7124C164.927 28.6682 164.989 28.6548 164.992 28.6309C165.028 28.3439 165.027 28.3441 165.322 28.3326C165.407 28.3293 165.494 28.3431 165.592 28.2895C165.455 28.1165 165.21 28.2745 165.069 28.1461C165.191 28.087 165.321 28.1186 165.447 28.1152C165.839 28.1047 165.816 28.1077 165.802 27.7449C165.793 27.5284 165.627 27.5923 165.477 27.5434C165.619 27.4504 165.84 27.4322 165.786 27.2138C165.746 27.0536 165.804 26.8831 165.735 26.7204C165.255 25.5888 165.101 24.4336 165.021 24.0817C164.787 23.0454 164.721 22.9975 164.178 22.6821C163.199 22.1137 163.098 22.096 163.161 22.0049C163.266 21.8545 163.375 22.0623 163.901 22.2699C163.771 22.0351 163.562 21.954 163.394 21.832C163.23 21.712 163.383 21.6 163.514 21.6742C163.61 21.7281 163.695 21.7964 163.787 21.8604C163.931 21.6304 163.592 21.5784 163.585 21.4096C163.706 21.2818 163.772 21.3874 164.29 21.7982C164.37 21.8621 164.372 21.8605 164.594 21.8358C164.518 21.596 164.257 21.4271 164.256 21.1199C164.687 21.2011 164.652 21.5806 165.058 21.8743C165.271 22.028 165.395 21.9884 165.457 21.7534C165.498 21.5988 165.514 21.4275 165.751 21.3164C166.004 22.6701 165.272 22.5043 166.215 24.6972C166.519 25.404 166.686 26.1475 166.909 26.8761C166.916 26.8996 166.935 26.9202 166.958 26.9567C167.501 26.8637 168.062 26.8887 168.616 26.867C170.031 26.8115 169.978 27.4275 170.487 27.2072C170.618 27.1505 170.707 27.3294 170.88 27.2881C171.045 27.2488 171.184 27.1798 171.335 27.1286C171.496 27.074 171.537 27.3127 171.73 27.3593C172.433 27.5293 172.889 28.0056 173.305 28.5134C173.671 28.9593 173.455 29.8987 172.851 30.2408C172.766 30.2886 172.665 30.3232 172.615 30.3989C172.381 30.7577 172.018 30.8439 171.594 30.8017C171.289 30.7712 171.108 30.9355 170.847 31.132C171.14 31.218 171.376 31.2382 171.594 31.2965C172.486 31.5352 173.026 32.388 173.923 32.7725C174.157 32.8727 174.4 33.1549 174.901 33.3694C175.26 33.5228 175.571 33.7473 175.861 33.9888C176.007 34.1111 176.174 34.2079 176.321 34.3273C176.423 34.4103 176.516 34.4288 176.664 34.3882C176.972 34.3038 177.112 34.4217 177.075 34.7173C177.043 34.9779 177.162 35.2334 177.089 35.4938C177.074 35.5481 177.134 35.5818 177.171 35.6197C177.421 35.8751 176.895 36.1978 176.855 35.9224C176.817 35.6548 176.515 35.4878 176.552 35.1875C176.567 35.073 176.418 34.9831 176.266 34.9419C175.112 34.6293 174.625 33.9538 172.983 33.7223C172.22 33.6147 172.171 33.3228 171.807 33.3397C171.643 33.3473 171.562 33.3935 171.514 33.5511C171.307 34.2443 171.221 34.9494 171.27 35.6621C171.341 36.6857 171.484 36.3432 171.778 37.1296C171.939 37.5598 172.175 37.963 172.317 38.4017C172.376 38.5859 172.384 38.7743 172.447 38.9586C173.03 40.6795 174.007 39.8998 173.757 41.0207C173.68 41.3646 173.559 41.6572 173.141 41.7704C173.531 42.6776 173.924 43.3903 173.675 44.1923C173.601 44.4275 173.807 44.7515 173.309 45.2938C172.94 45.6958 172.305 45.7103 171.899 45.3417C170.626 44.1846 171.357 44.7976 169.965 41.7093C169.95 41.6764 169.614 40.8562 169.442 40.8961C169.094 40.9768 169.641 41.2612 169.129 41.8314C168.998 42.678 168.865 43.528 168.984 44.3819C169.042 44.8075 168.843 45.3624 169.015 45.9814C169.088 46.2474 169.351 46.9532 169.081 48.1638C169.015 48.4584 169.058 48.7509 169.04 49.0438C169.02 49.3695 170.17 49.2948 169.877 50.0861C169.448 51.2472 170.63 51.5109 170.253 52.5809C170.131 52.9284 169.871 53.1617 169.494 53.1931C169.132 53.2231 168.929 53.0023 168.736 52.7775C168.646 52.6718 168.265 51.4977 168.27 50.9029C168.272 50.6484 168.345 49.7617 168.107 49.3939C167.728 48.8082 167.57 48.1496 167.334 47.5161C166.889 46.3196 167.143 45.9038 167.059 45.598C166.974 45.2927 166.405 41.7527 166.126 41.5347C166.041 41.4684 166.032 41.375 166.04 41.2871C166.083 40.7603 165.871 39.5702 166.178 38.7991C166.192 38.7633 166.22 38.7238 166.213 38.6905C166.129 38.2601 166.315 37.8621 166.418 37.4606C166.545 36.9664 166.437 36.4938 166.365 36.0149C166.317 35.6904 165.486 35.6947 165.752 36.0873C165.977 36.4183 166.121 36.5391 165.991 36.6155C165.934 36.649 165.866 36.6129 165.846 36.5743C165.657 36.2046 165.277 35.9752 165.025 35.6549C164.927 35.5304 164.807 35.4247 164.672 35.3969C164.252 35.3102 163.957 35.0096 163.542 34.912C163.148 34.8189 162.772 34.6631 162.381 34.5539C161.726 34.3707 161.115 34.1029 160.562 33.7451C160.045 33.4105 159.432 33.3626 158.852 33.2138C158.768 33.1921 158.724 33.2199 158.691 33.2912C158.458 33.7979 158.762 33.5834 158.42 34.4419C158.339 34.6471 158.286 34.8556 158.232 35.0669C158.179 35.2762 158.145 35.4492 158.343 35.627C158.477 35.7474 158.489 35.9235 158.355 36.0834C157.707 36.8526 158.378 36.9025 158.517 37.3665C158.723 38.0525 159.119 38.6828 159.237 39.3952C159.347 40.0605 159.547 40.7121 159.539 41.3947C159.511 43.8348 160.086 44.9464 159.403 45.3377C159.177 45.4667 159.02 45.6819 158.739 45.7433C158.507 45.7941 158.733 45.9855 158.411 46.5816C158.134 47.0948 157.441 47.0966 157.194 46.5837C157.067 46.3195 156.925 46.0568 157.05 45.7453C157.123 45.5628 157.037 45.3682 157.002 45.1803C156.983 45.0782 156.915 44.9732 156.625 44.9202C156.433 44.8853 156.219 44.7955 156.054 44.8417C155.878 44.8908 155.948 45.1328 155.877 45.2814C155.695 45.6656 155.449 45.822 155.341 46.7413C155.26 47.4363 154.568 48.3556 153.976 47.8416C153.062 47.0484 153.942 46.5853 153.619 46.0587C153.178 45.34 152.88 45.3893 152.871 45.0583C152.866 44.888 152.416 44.7691 152.171 44.529C151.759 44.1256 152.108 44.1839 151.755 43.3164C151.638 43.0291 151.594 42.7281 151.506 42.4366C151.359 41.9478 151.53 41.5199 151.78 41.0866C151.109 40.8536 150.432 40.7108 150.61 40.3402C150.76 40.0262 150.894 39.7059 151.079 39.417C150.995 39.2937 150.846 39.3874 150.764 39.3046C150.747 39.2668 150.756 39.2266 150.797 39.2112C150.898 39.1729 150.986 39.1043 151.111 39.114C151.222 39.1226 151.301 39.0621 151.333 38.9673C151.402 38.7587 151.578 38.6246 151.739 38.4795C152.048 38.2016 152.092 37.6892 152.306 37.5191C152.483 37.3784 152.562 37.1861 152.667 37.0049C152.99 36.449 152.286 36.2623 152.585 35.4344C152.598 35.3984 152.63 35.3538 152.617 35.3265C152.356 34.7621 152.848 34.2659 152.515 33.371C152.002 31.992 152.275 32.4198 151.97 31.9874C151.818 31.7728 151.806 31.7696 151.593 31.9693C151.454 32.0999 151.351 31.9692 151.33 31.9153C151.218 31.6352 150.974 31.6254 150.709 31.6482C150.725 31.5285 150.913 31.6234 150.907 31.4959C150.95 31.4827 150.954 31.4735 150.92 31.4685C150.919 31.4799 150.917 31.4913 150.916 31.5026ZM155.944 42.9832C156.161 42.8751 156.317 42.7808 156.312 42.5876C156.307 42.4174 156.365 42.2611 156.4 42.099C156.479 41.724 155.928 41.5977 155.917 41.7998C155.896 42.1778 155.825 42.5577 155.944 42.9832ZM152.488 37.7263C152.143 37.8406 152.317 38.4045 151.812 38.7682C151.734 38.8243 151.82 38.8771 151.844 38.932C151.875 39.0024 151.904 39.0272 151.996 39.001C152.288 38.9184 152.362 38.7355 152.488 37.7263ZM169.246 30.2071C169.237 30.1842 169.236 30.1469 169.22 30.1408C169.092 30.0926 168.963 30.0252 168.821 30.0793C168.762 30.1017 168.515 30.5288 168.771 30.5715C168.937 30.5991 169.243 30.3616 169.246 30.2071ZM167.179 27.5253C167.374 27.7101 167.682 27.8366 167.992 27.8601C167.607 27.5431 167.516 27.5056 167.179 27.5253ZM168.891 28.5912C168.635 28.1709 168.606 28.07 168.492 28.1289C168.443 28.1542 168.409 28.21 168.449 28.2586C168.56 28.3953 168.62 28.5765 168.891 28.5912ZM168.158 28.6344C168.243 28.4655 168.056 28.4229 168.039 28.3137C168.011 28.1298 167.732 28.3316 167.863 28.4201C167.961 28.4859 168.005 28.6089 168.158 28.6344ZM166.146 34.8241C166.13 34.7612 166.129 34.6667 166.01 34.6821C165.813 34.7075 165.766 34.9593 166.001 34.9671C166.104 34.9706 166.16 34.9327 166.146 34.8241ZM167.279 27.9018C167.366 28.1984 167.647 28.1449 167.613 28.0659C167.565 27.9514 167.471 27.8944 167.279 27.9018ZM167.874 27.3378C168.038 27.5197 168.137 27.6295 168.373 27.6461C168.235 27.5006 168.139 27.3858 167.874 27.3378ZM154.374 30.9818C154.255 30.9348 154.134 30.8959 153.951 31.0055C154.138 31.0442 154.256 31.047 154.374 30.9818ZM149.958 30.4199C150.165 30.3747 150.136 30.2224 150.076 30.2372C149.993 30.258 149.922 30.2969 149.903 30.3803C149.901 30.3896 149.938 30.4063 149.958 30.4199ZM168.439 27.3433C168.42 27.2438 168.309 27.29 168.318 27.3419C168.325 27.3806 168.36 27.4056 168.404 27.3962C168.42 27.3926 168.429 27.3597 168.439 27.3433ZM151.806 38.6464C151.844 38.6161 151.843 38.6297 151.81 38.5939C151.772 38.6243 151.773 38.6107 151.806 38.6464Z" fill="#2E3440"/>
<path d="M135.943 21.4139C136.077 21.4089 136.024 21.1623 136.195 21.2369C136.376 21.3164 136.227 21.457 136.189 21.5357C135.877 22.1876 136.224 23.0063 135.64 23.68C135.563 23.7682 135.502 23.8756 135.467 23.983C134.945 25.6125 133.632 27.3616 133.42 27.4771C132.781 27.8267 131.576 28.6555 129.569 29.3178C129.094 29.4745 128.754 29.7642 128.418 30.0748C128.026 30.4377 127.518 33.5518 127.429 34.0497C127.243 35.1001 126.75 35.3968 126.983 35.663C127.075 35.769 127.159 36.1987 127.296 36.2793C127.602 36.4599 127.758 36.746 127.976 36.9883C128.21 37.2484 128.519 37.4376 128.807 37.6373C129.492 38.1122 131.079 39.9207 131.332 40.1671C131.883 40.7023 131.892 41.0795 132.031 41.2333C132.412 41.6556 131.998 42.4418 131.628 42.8568C131.449 43.0581 130.648 44.2014 130.346 44.4912C129.732 45.0823 130.031 45.2955 129.708 45.7057C129.306 46.2149 129.805 46.9303 130.261 47.2278C132.08 48.4141 130.821 49.0037 130.16 48.9172C129.612 48.8454 129.217 48.5424 128.802 48.2643C128.409 48.0018 128.742 47.724 127.83 47.5845C127.225 47.4921 126.67 47.2476 126.444 47.0693C125.317 46.1768 127.548 45.851 128.056 44.4554C128.273 43.8615 128.627 42.9173 129.105 42.4586C129.313 42.2595 129.344 42.133 129.163 41.9254C128.964 41.6974 128.753 41.4685 128.455 41.3291C127.497 40.8796 127.233 40.2791 125.189 39.8039C124.227 39.58 123.379 39.85 122.581 40.2857C120.566 41.3864 120.597 41.924 120.058 42.4794C119.978 42.5616 119.811 42.6155 119.859 42.7791C119.873 42.8302 119.832 42.8725 119.766 42.8865C119.394 42.9659 119.564 43.3071 119.526 43.379C119.242 43.9128 119.352 44.5399 119.021 45.0684C118.761 45.4825 119.017 45.7299 118.527 46.6075C118.344 46.9345 118.764 46.9778 118.487 47.3706C118.021 48.0302 118.467 48.5347 117.498 48.8682C116.454 49.2279 116.172 48.8294 115.524 49.2788C114.598 49.9212 113.981 49.9081 112.993 49.4918C112.049 49.0941 113.408 48.2129 114.761 47.8515C115.297 47.7086 115.626 47.2097 115.891 47.1914C116.056 47.1799 116.153 47.1125 116.049 46.9338C115.979 46.8121 115.958 46.6675 115.913 46.5337C115.65 45.7527 116.574 46.1068 116.448 45.3493C116.374 44.9075 116.588 44.5029 116.639 44.0778C116.714 43.445 117.064 42.8736 117.155 42.252C117.223 41.7863 117.555 41.431 117.67 40.9943C118.205 40.3418 118.438 39.5398 118.964 38.8794C119.163 38.6293 119.312 38.3361 119.424 38.044C119.595 37.6019 120.107 37.3965 120.295 35.9536C120.308 35.8535 120.345 35.7789 120.44 35.7374C120.81 35.5763 120.698 35.3511 120.755 35.1361C120.898 34.6068 120.716 34.8882 120.024 34.3957C119.739 34.1931 119.862 33.9577 120.135 33.7429C120.463 33.4858 120.578 33.1155 120.753 32.7822C120.882 32.5367 120.847 32.2505 120.772 31.9926C120.579 31.322 120.975 31.2925 120.788 29.5875C120.731 29.0749 120.61 28.5542 120.263 28.0908C119.936 27.6549 119.698 27.164 119.402 26.7057C119.255 26.48 119.246 26.1714 119.204 25.9007C118.789 23.2242 118.01 23.9256 117.103 21.2818C116.933 20.7882 116.918 20.5668 116.523 20.2113C115.783 19.5451 115.97 19.0413 115.808 18.5773C115.621 18.0391 115.468 17.8191 115.704 17.7508C115.969 17.6739 115.825 18.0764 116.078 18.1514C116.094 18.0043 116.129 17.869 116.054 17.7259C116.006 17.6346 115.929 17.1888 116.238 17.1919C116.502 17.1945 116.16 17.4258 116.62 18.0632C116.62 17.1388 116.575 16.9766 116.775 16.9708C116.915 16.9667 116.967 17.0704 116.954 17.1829C116.924 17.454 117.067 17.6986 117.084 17.9635C117.213 17.6717 117.012 17.1586 117.296 17.1204C117.652 17.0725 117.556 18.0216 117.556 18.7713C117.705 18.7758 117.735 18.7026 117.727 18.623C117.719 18.5414 117.825 18.1767 118.004 18.2026C118.101 18.2165 118.049 18.3058 118.073 18.3578C118.444 19.1623 117.458 19.4579 118.004 20.2313C119.661 22.5759 119.744 22.4607 120.125 23.412C120.501 24.3533 120.759 24.1949 121.106 25.0273C121.237 25.3434 121.553 25.576 121.609 25.9305C121.621 26.0068 121.724 26.0292 121.816 26.037C122.359 26.0826 122.877 26.2058 123.387 26.5085C123.144 25.8633 123.125 25.2557 123.155 24.6388C123.175 24.2371 123.487 23.9772 123.663 23.6518C123.811 23.3794 123.888 23.9013 124.132 23.5833C124.362 23.2849 124.738 23.2544 125.079 23.1663C125.996 22.9294 127.87 24.3699 127.416 25.2712C127.172 25.755 127.447 26.5707 126.765 27.1109C126.563 27.2708 126.434 27.4918 126.2 27.6226C126.16 27.6446 126.152 27.7116 126.119 27.7803C126.641 27.8602 127.128 27.5689 127.46 27.5735C127.515 27.5743 127.585 27.5747 127.624 27.5471C127.979 27.2922 128.423 27.3564 128.823 27.2635C129.122 27.194 129.388 27.2086 129.677 27.3231C130.05 27.4715 130.306 27.2269 131.859 26.6077C132.092 26.5146 132.267 26.3706 132.384 26.1813C133.121 24.9902 135.049 23.3956 134.682 22.8649C134.407 22.4675 134.51 22.026 134.497 21.5982C134.495 21.5558 134.487 21.4684 134.566 21.4911C134.814 21.5625 134.73 21.3931 134.773 21.2934C134.855 21.104 134.933 20.9188 134.929 20.7111C134.927 20.5877 135.165 20.4941 135.171 20.7132C135.174 20.8276 135.172 20.9421 135.172 21.0763C135.509 20.8918 135.216 20.5211 135.456 20.5018C135.541 20.495 135.587 20.5267 135.601 20.6045C135.607 20.6395 135.63 20.7013 135.646 20.7015C136.077 20.7058 135.918 20.9951 135.942 21.1933C135.952 21.2694 135.95 21.3467 135.954 21.4234C135.932 21.4287 135.91 21.4341 135.888 21.4394C135.898 21.4499 135.907 21.4604 135.916 21.4709C135.925 21.452 135.934 21.433 135.943 21.4139Z" fill="#2E3440"/>
<path d="M146.985 40.9104C146.156 40.288 145.922 39.5565 145.743 39.194C145.679 39.0626 145.53 39.16 145.564 39.2354C145.639 39.4022 145.608 39.5894 145.709 39.7538C146.071 40.346 145.688 41.0705 146.322 41.6323C146.629 41.9046 146.741 42.2449 146.508 42.6376C146.261 43.0539 146.822 43.61 146.667 44.8105C146.601 45.3191 146.464 45.8445 146.623 46.3704C146.668 46.5195 146.639 46.6679 146.481 46.8147C146.193 47.0818 146.468 47.4185 146.455 48.1145C146.442 48.8936 146.768 49.0394 146.807 50.1297C146.829 50.7628 146.921 51.4269 146.882 51.5669C146.698 52.2421 146.829 52.9047 146.977 53.5654C147.046 53.8716 148.437 56.1613 147.058 55.9946C146.285 55.901 146.284 55.3306 145.594 55.3424C144.795 55.3562 144.616 54.3623 145.092 54.0499C145.32 53.9007 145.481 53.6037 145.246 53.3084C145.178 53.2225 145.16 53.1608 145.305 53.1091C145.556 53.019 145.396 52.5259 145.334 52.4112C145.056 51.8962 145.008 51.3147 144.734 50.8013C144.272 49.9348 144.681 48.6869 144.341 48.2591C143.836 47.6243 144.117 47.3441 143.248 45.5755C143.119 45.3139 143.052 44.7331 142.682 44.7329C142.499 44.7328 142.55 44.8724 142.504 44.9511C142.27 45.3474 142.056 45.745 141.696 46.0788C141.219 46.5208 141.324 47.2794 141.105 47.4419C141.074 47.4655 141.039 47.5003 141.032 47.5344C140.846 48.4087 140.291 48.4539 140.144 49.6699C140.143 49.6757 139.95 50.9077 139.95 50.9077C139.594 51.4832 139.536 52.164 139.158 52.7305C138.807 53.2555 139.326 53.1429 139.272 53.4262C139.036 54.6617 139.988 54.5817 139.529 55.8324C139.406 56.1668 138.879 56.2457 138.485 56.25C138.162 56.2535 137.995 55.9922 137.884 55.7435C137.635 55.1839 137.856 55.086 137.538 54.1169C137.487 53.9625 137.456 53.8054 137.495 53.6651C137.641 53.134 137.605 52.583 137.735 52.0507C137.767 51.9159 137.746 51.7695 137.742 51.6287C137.732 51.2584 137.821 50.9001 137.888 50.5382C137.931 50.3073 137.89 49.0565 138.233 48.4903C138.48 48.084 138.466 47.3109 138.377 47.2748C138.102 47.1638 138.211 47.0122 138.305 46.8561C138.362 46.7606 138.341 46.6553 138.341 46.5539C138.338 43.6061 138.755 43.3117 138.448 42.7894C138.424 42.7487 138.416 42.6782 138.439 42.6408C138.69 42.2341 138.597 41.7233 138.932 41.3397C138.995 41.2676 139.05 41.122 139.011 41.0582C138.849 40.791 139.025 40.5665 139.084 40.3284C139.211 39.8122 138.914 39.905 139.037 39.4273C139.412 37.9703 139.04 37.0768 139.275 36.2953C139.309 36.18 139.24 36.0736 139.205 35.9633C138.656 34.2427 138.028 34.706 136.815 33.2342C136.151 32.4286 136.091 32.0482 136.682 31.115C137.183 30.3232 140.337 27.7211 140.788 27.4144C141.248 27.1012 141.969 27.2901 142.319 27.6723C142.031 27.7356 141.849 27.4833 141.594 27.6303C141.92 27.7896 142.382 27.7861 142.424 28.2279C142.308 28.2902 142.207 28.2423 142.096 28.2156C141.796 28.1434 141.089 28.2091 141.178 28.442C141.198 28.4951 141.267 28.5083 141.322 28.4921C141.725 28.3717 142.145 28.5075 142.569 28.3871C143.23 28.1993 144.314 29.3074 144.535 29.6656C144.852 30.178 144.501 30.3237 144.636 30.6871C144.729 30.9372 144.543 31.2832 144.28 31.4188C144.019 31.553 143.798 32.2326 144.161 32.1897C144.544 32.1444 144.929 32.3964 145.101 32.2947C145.162 32.2589 145.251 32.2489 145.304 32.2886C145.727 32.6013 146.011 32.2517 146.583 32.8815C147.382 33.761 147.1 33.9403 147.768 35.0162C148.126 35.5938 148.364 36.2155 148.579 36.8413C148.766 37.3841 148.317 37.9039 148.456 38.1114C148.606 38.3345 148.367 38.5287 148.419 38.7409C148.423 38.7597 148.401 38.7981 148.381 38.8056C148.028 38.9363 148.074 39.26 147.968 39.5061C147.723 40.0771 147.469 39.7067 147.392 40.1361C147.343 40.4129 147.191 40.6576 146.985 40.9104ZM140.631 32.5763C141.754 32.358 141.377 32.2012 141.439 31.7538C141.454 31.6415 141.431 31.49 141.238 31.4126C140.513 31.1228 141.015 30.6246 140.883 30.2982C140.715 29.8848 140.924 29.5671 141.184 29.256C141.268 29.1554 141.326 29.0373 141.443 28.9583C141.542 28.891 141.489 28.7512 141.316 28.8027C141.02 28.8904 140.916 29.0733 140.443 29.0747C139.71 29.0769 138.815 30.8874 138.434 31.5446C138.106 32.1099 138.664 31.9225 139.921 32.3937C140.161 32.4837 140.469 32.3369 140.631 32.5763ZM146.833 36.7602C146.671 36.4393 146.431 36.1958 146.162 35.9142C146.019 36.5752 146.218 36.8176 146.833 36.7602ZM145.902 35.7366C145.76 35.7315 145.753 35.9047 145.901 35.8979C146.065 35.8904 146.037 35.7414 145.902 35.7366Z" fill="#2E3440"/>
<path d="M180.529 29.2666C180.57 29.1566 180.412 29.1304 180.462 29.0477C180.513 28.9632 180.586 28.9873 180.679 29.0102C180.895 29.0633 181.122 29.0498 181.344 29.1046C181.791 29.2151 181.663 28.7756 181.717 28.7074C181.963 28.3947 181.281 28.5055 181.416 28.2747C181.488 28.1503 181.614 28.272 181.704 28.3082C181.844 28.3646 182.002 28.4044 182.1 28.5215C182.239 28.6871 182.381 28.657 182.53 28.5402C182.477 28.3998 182.199 28.3406 182.356 28.1095C182.696 28.2516 182.997 28.481 183.381 28.5166C183.794 28.555 184.144 28.7138 184.5 28.8933C184.777 29.0335 185.111 29.0706 185.388 29.2354C186.001 29.6007 185.545 29.9299 185.788 30.7833C185.865 31.0563 185.823 31.3484 185.533 31.5453C185.412 31.6268 185.357 31.7477 185.31 31.8642C185.241 32.0361 185.321 32.1085 185.554 32.1228C185.75 32.1348 185.932 32.2101 186.136 32.1972C187.574 32.1066 187.015 32.0596 187.993 32.1525C188.639 32.214 189.292 32.2536 189.94 32.1199C190.139 32.0788 190.23 31.9834 190.252 31.8118C190.312 31.347 190.507 30.8998 190.489 30.4262C190.48 30.2063 190.692 30.0074 190.603 29.8069C190.523 29.6266 190.322 29.4929 190.201 29.3236C189.899 28.9011 189.933 28.8004 190.424 28.5629C190.904 28.3309 191.108 28.3799 191.413 28.7895C191.624 29.0726 191.774 29.3679 191.672 29.7179C191.591 29.9981 192.039 29.7679 191.849 30.4736C191.601 31.3941 192.013 32.1088 190.895 32.8302C190.109 33.3379 189.35 33.3601 188.357 33.4259C187.982 33.4507 187.672 33.643 187.381 33.8397C187.304 33.8918 187.255 34.0035 187.255 34.1134C187.25 34.8462 186.86 35.0116 187.084 35.7119C187.188 36.0377 187.186 36.8164 187.375 37.085C187.424 37.1551 187.43 37.2301 187.425 37.3065C187.389 37.8521 187.569 38.3882 187.512 38.935C187.482 39.2222 187.678 39.4698 187.699 39.7502C187.703 39.8 187.775 39.8622 187.833 39.889C188.362 40.1338 187.852 40.4404 188.36 41.4301C188.623 41.942 188.537 42.1912 188.673 42.3788C189.085 42.9478 188.167 42.6792 188.333 43.5497C188.614 45.024 188.315 45.6513 188.522 46.2523C188.571 46.3938 188.451 46.5454 188.448 46.703C188.433 47.4704 188.24 48.1979 187.858 48.8898C187.584 49.3861 187.373 49.9093 187.031 50.3767C186.952 50.4854 186.9 50.6651 187.013 50.7654C187.477 51.1751 187.218 51.9879 187.451 52.5917C187.693 53.2199 186.603 53.6124 186.141 52.8956C185.57 52.0087 185 51.8476 185.207 51.3091C185.334 50.9769 185.404 50.6158 185.797 50.4312C185.93 50.3684 185.952 50.2471 185.967 50.1449C186.068 49.4814 186.224 48.8256 186.245 48.1504C186.277 47.1186 187.071 46.9856 186.745 46.2947C186.495 45.7658 186.437 44.908 185.613 43.7517C185.407 43.4636 185.18 43.1912 185.043 42.8683C185.033 42.8457 185.011 42.8236 184.989 42.8095C184.866 42.7322 184.801 42.544 184.617 42.5923C184.44 42.6387 184.447 42.8093 184.433 42.9464C184.379 43.5056 183.922 43.4071 183.638 43.8318C182.845 45.0203 183.016 45.4278 182.725 46.0331C182.117 47.2987 182.6 48.1683 182.147 49.1479C182.034 49.3931 182.007 49.6601 181.936 49.9136C181.686 50.8142 182.432 51.3462 181.741 51.6932C181.577 51.7756 181.496 51.9016 181.427 52.0717C181.334 52.301 181.137 52.4965 180.982 52.7045C180.949 52.7483 179.565 52.8318 179.74 52.3301C180.011 51.5567 180.466 51.2249 180.203 50.6262C180.152 50.5097 180.207 50.4817 180.336 50.4696C180.784 50.4277 180.814 50.3845 180.712 50.0041C180.639 49.7317 180.686 49.4529 180.687 49.1807C180.688 48.6949 180.614 48.2166 180.586 47.7344C180.569 47.4336 180.256 47.4687 180.519 46.9442C180.974 46.0362 181.092 45.0786 181.107 44.0971C181.116 43.5235 181.205 42.9518 181.188 42.3764C181.185 42.2972 181.223 42.2307 181.251 42.1581C181.368 41.8536 181.336 41.5461 181.322 41.2257C181.261 39.8685 182.062 39.5007 181.731 39.0152C181.446 38.5981 181.423 38.1054 181.277 37.6478C181.235 37.5145 181.289 37.3761 181.366 37.2297C179.94 36.9655 180.121 36.0842 178.832 35.5172C178.387 35.3217 178.176 35.0772 178.202 34.9097C178.236 34.6954 178.072 33.4296 179.672 33.4296C177.871 32.2533 177.229 32.2686 177.502 31.864C177.534 31.8166 177.512 31.7382 177.51 31.6742C177.482 30.882 177.832 29.9892 177.763 29.2478C177.678 28.3329 178.41 28.5051 178.757 27.7618C178.899 27.4568 179.141 27.3845 179.467 27.4215C179.731 27.4514 179.984 27.4899 180.214 27.6372C180.531 27.8388 180.119 27.8181 180.099 28.2524C180.075 28.7577 179.508 28.3447 179.391 28.8897C179.374 28.9695 179.331 29.0322 179.28 29.0939C179.198 29.1934 179.283 29.2499 179.363 29.2528C179.755 29.2673 180.148 29.2989 180.529 29.2666ZM180.216 29.7034C179.891 29.6094 179.584 29.6886 179.302 29.5748C179.074 29.4832 178.972 29.5375 178.975 29.7427C178.981 30.1758 178.761 30.2829 178.797 31.1779C178.813 31.589 179.146 31.3014 179.416 31.5826C179.588 31.762 179.814 31.8075 180.045 31.8595C180.114 31.875 180.2 31.8753 180.246 31.9139C180.716 32.3076 181.415 31.7137 181.962 31.9149C182.287 32.0342 182.622 32.1422 182.899 32.3493C183.268 32.6258 183.427 32.4835 183.405 32.2961C183.38 32.0954 183.321 31.8977 183.268 31.7006C183.194 31.4233 182.636 31.5505 182.736 30.9982C182.798 30.6502 182.695 30.3136 182.721 29.9702C182.742 29.6877 182.684 29.6654 182.377 29.7852C181.486 30.1331 181.338 30.8039 180.935 30.8932C180.931 30.6762 181.13 30.5564 181.138 30.3759C181.046 30.3307 180.946 30.3308 180.851 30.3564C179.331 30.7641 179.277 30.875 179.24 30.7299C179.18 30.492 179.945 30.6148 180.268 30.1044C179.981 30.151 179.756 30.2448 179.485 30.1592C179.728 29.9956 180.056 29.9947 180.216 29.7034Z" fill="#2E3440"/>
<path d="M234.806 23.4191C234.517 23.2817 234.759 23.1823 234.803 23.3259C234.813 23.3574 234.799 23.395 234.795 23.4298L234.806 23.4191Z" fill="#2E3440"/>
<path d="M235.405 38.8888C235.418 38.831 235.447 38.8815 235.393 38.8769L235.405 38.8888Z" fill="#2E3440"/>
<path d="M232.032 25.7795L232.023 25.7605L232.046 25.7624L232.032 25.7795Z" fill="#2E3440"/>
<path d="M231.709 27.5579C231.735 27.5813 231.726 27.6264 231.71 27.6213C231.624 27.5936 231.706 27.5845 231.722 27.5674L231.709 27.5579Z" fill="#2E3440"/>
<path d="M234.887 23.5009C234.841 23.4882 234.812 23.4625 234.805 23.4185L234.794 23.4292C234.883 23.4067 234.901 23.441 234.875 23.5107L234.887 23.5009Z" fill="#2E3440"/>
<path d="M234.799 22.8869C234.783 22.8712 234.767 22.8554 234.751 22.8396C234.758 22.8344 234.768 22.8233 234.773 22.8249C234.821 22.8415 234.803 22.8693 234.786 22.8965L234.799 22.8869Z" fill="#2E3440"/>
<path d="M234.8 22.4272C234.774 22.3941 234.778 22.4067 234.784 22.3845C234.785 22.402 234.787 22.4195 234.788 22.437L234.8 22.4272Z" fill="#2E3440"/>
<ellipse cx="25.3572" cy="25.2715" rx="23.2799" ry="23.4049" transform="rotate(13.2866 25.3572 25.2715)" fill="url(#paint0_linear_25_22)"/>
<ellipse cx="54.3579" cy="31.8811" rx="11.7167" ry="11.3775" transform="rotate(110.132 54.3579 31.8811)" fill="url(#paint1_linear_25_22)"/>
<ellipse cx="79.1916" cy="21.7039" rx="18.3663" ry="18.1605" transform="rotate(47.4432 79.1916 21.7039)" fill="url(#paint2_linear_25_22)"/>
<ellipse cx="102.01" cy="34.0354" rx="15.8799" ry="15.5036" transform="rotate(108.203 102.01 34.0354)" fill="url(#paint3_linear_25_22)"/>
<path d="M16.4671 25.1329C15.4842 25.1329 14.6671 25.5386 14.0156 26.35C13.3642 27.1614 13.0385 28.2129 13.0385 29.5043C13.0385 31.0129 13.3814 32.1957 14.0671 33.0529C14.7528 33.91 15.5756 34.3386 16.5356 34.3386C17.1071 34.3386 17.6728 34.1443 18.2328 33.7557C18.7928 33.3557 19.1528 32.9329 19.3128 32.4871L19.7242 32.6929C19.4614 33.3214 19.0442 33.8529 18.4728 34.2871C17.9128 34.71 17.1528 34.9214 16.1928 34.9214C14.6728 34.9214 13.4671 34.43 12.5756 33.4471C11.6956 32.4529 11.2556 31.2643 11.2556 29.8814C11.2556 28.2814 11.7642 26.9957 12.7814 26.0243C13.8099 25.0414 15.0328 24.55 16.4499 24.55C16.7814 24.55 17.1642 24.6357 17.5985 24.8071C18.0328 24.9786 18.2842 25.0643 18.3528 25.0643C18.4899 25.0643 18.5585 24.95 18.5585 24.7214H18.9528L19.1242 26.8986H18.7471C18.6671 26.3843 18.4385 25.9614 18.0614 25.63C17.6956 25.2986 17.1642 25.1329 16.4671 25.1329ZM20.5218 34.75V34.39C21.1389 34.39 21.4989 34.2757 21.6018 34.0471V25.1671C20.8932 25.11 20.5332 25.0814 20.5218 25.0814V24.6871C20.7389 24.6871 21.1618 24.5671 21.7903 24.3271C22.4303 24.0757 22.8818 23.95 23.1446 23.95V27.8243C23.7618 27.2986 24.4418 27.0357 25.1846 27.0357C26.2703 27.0357 27.0418 27.2129 27.4989 27.5671C27.9675 27.9214 28.2018 28.5329 28.2018 29.4014V34.0471C28.3046 34.2757 28.6646 34.39 29.2818 34.39V34.75H25.5789V34.39C26.196 34.39 26.556 34.2757 26.6589 34.0471V29.2814C26.6589 28.1729 26.1332 27.6186 25.0818 27.6186C24.3618 27.6186 23.716 27.87 23.1446 28.3729V34.0471C23.2475 34.2757 23.6075 34.39 24.2246 34.39V34.75H20.5218ZM32.5591 27.2071V27.5671C32.2277 27.5671 31.9877 27.59 31.8391 27.6357L33.8791 32.6586L35.422 28.8014L35.062 27.91C34.9591 27.6814 34.5991 27.5671 33.982 27.5671V27.2071H37.3077V27.5671C36.9763 27.5671 36.7363 27.59 36.5877 27.6357L38.6277 32.6586L40.582 27.7557C40.422 27.63 40.102 27.5671 39.622 27.5671V27.2071H42.4334V27.5671C41.8163 27.5671 41.462 27.6757 41.3706 27.8929L38.6277 34.75H37.7877L35.8334 29.8471L33.8791 34.75H33.0391L30.3134 27.91C30.2106 27.6814 29.8506 27.5671 29.2334 27.5671V27.2071H32.5591ZM42.8751 34.75V34.39C43.4923 34.39 43.8523 34.2757 43.9551 34.0471V28.2529C43.2465 28.1957 42.8865 28.1671 42.8751 28.1671V27.7729C43.0923 27.7729 43.5151 27.6529 44.1437 27.4129C44.7837 27.1614 45.2351 27.0357 45.498 27.0357V34.0471C45.6008 34.2757 45.9608 34.39 46.578 34.39V34.75H42.8751ZM44.6751 25.9386C44.4237 25.9386 44.2008 25.8471 44.0065 25.6643C43.8237 25.47 43.7323 25.2243 43.7323 24.9271C43.7323 24.6643 43.8123 24.4357 43.9723 24.2414C44.1437 24.0471 44.3608 23.95 44.6237 23.95C44.8751 23.95 45.098 24.0471 45.2923 24.2414C45.4865 24.4357 45.5837 24.6814 45.5837 24.9786C45.5837 25.2414 45.498 25.47 45.3265 25.6643C45.1551 25.8471 44.938 25.9386 44.6751 25.9386ZM47.2907 34.75V34.39C47.9079 34.39 48.2679 34.2757 48.3707 34.0471V25.1671C47.6622 25.11 47.3022 25.0814 47.2907 25.0814V24.6871C47.5079 24.6871 47.9307 24.5671 48.5593 24.3271C49.1993 24.0757 49.6507 23.95 49.9136 23.95V34.0471C50.0164 34.2757 50.3764 34.39 50.9936 34.39V34.75H47.2907ZM53.5806 30.6186C53.592 31.5786 53.8663 32.43 54.4034 33.1729C54.952 33.9043 55.5634 34.27 56.2377 34.27C57.232 34.27 58.032 33.8929 58.6377 33.1386L59.0491 33.3443C58.7177 33.8929 58.2834 34.2929 57.7463 34.5443C57.2206 34.7957 56.5234 34.9214 55.6548 34.9214C55.2206 34.9214 54.8034 34.8586 54.4034 34.7329C54.0034 34.5957 53.6091 34.3786 53.2206 34.0814C52.832 33.7729 52.5234 33.3214 52.2948 32.7271C52.0663 32.1329 51.952 31.4243 51.952 30.6014C51.952 29.5957 52.2606 28.75 52.8777 28.0643C53.5063 27.3786 54.3748 27.0357 55.4834 27.0357C56.6948 27.0357 57.5977 27.3786 58.192 28.0643C58.7863 28.7386 59.0834 29.59 59.0834 30.6186H53.5806ZM53.5977 30.0871H57.4034C57.3348 29.2643 57.1577 28.6357 56.872 28.2014C56.5977 27.7671 56.112 27.55 55.4148 27.55C55.0148 27.55 54.6263 27.7843 54.2491 28.2529C53.8834 28.7214 53.6663 29.3329 53.5977 30.0871ZM64.576 34.75V34.39C65.1931 34.39 65.5531 34.2757 65.656 34.0471V25.4243C65.5531 25.1957 65.1931 25.0814 64.576 25.0814V24.7214H68.4502C69.856 24.7214 70.9245 24.99 71.656 25.5271C72.3988 26.0643 72.7702 26.6643 72.7702 27.3271C72.7702 28.1843 72.4274 28.8757 71.7417 29.4014C71.056 29.9271 70.0274 30.19 68.656 30.19H67.2331V34.0471C67.336 34.2757 67.696 34.39 68.3131 34.39V34.75H64.576ZM67.2331 25.3043V29.6071H68.656C69.536 29.6071 70.1531 29.4357 70.5074 29.0929C70.8731 28.7386 71.056 28.1557 71.056 27.3443C71.056 25.9843 70.1874 25.3043 68.4502 25.3043H67.2331ZM73.3737 34.75V34.39C73.9909 34.39 74.3509 34.2757 74.4537 34.0471V29.9329L73.6823 30.5843L73.3052 30.1386L74.4537 29.1786V25.1671C74.4537 25.1671 74.0937 25.1386 73.3737 25.0814V24.6871C73.5909 24.6871 74.0137 24.5671 74.6423 24.3271C75.2823 24.0757 75.7337 23.95 75.9966 23.95V27.8757L76.768 27.2243L77.1452 27.67L75.9966 28.63V34.0471C76.0994 34.2757 76.4594 34.39 77.0766 34.39V34.75H73.3737ZM79.6803 30.4986C79.6803 31.8014 79.926 32.7786 80.4174 33.43C80.9203 34.0814 81.5603 34.4071 82.3374 34.4071C82.9546 34.4071 83.4517 34.1329 83.8289 33.5843C84.206 33.0243 84.3946 32.31 84.3946 31.4414C84.3946 28.8586 83.4974 27.5671 81.7031 27.5671C81.0974 27.5671 80.606 27.8586 80.2289 28.4414C79.8631 29.0129 79.6803 29.6986 79.6803 30.4986ZM82.1146 34.9214C80.8346 34.9214 79.8346 34.55 79.1146 33.8071C78.3946 33.0529 78.0346 32.0643 78.0346 30.8414C78.0346 29.7329 78.3603 28.8243 79.0117 28.1157C79.6631 27.3957 80.6574 27.0357 81.9946 27.0357C83.3431 27.0357 84.3546 27.3957 85.0289 28.1157C85.7031 28.8243 86.0403 29.8014 86.0403 31.0471C86.0403 32.1557 85.7146 33.0814 85.0631 33.8243C84.4231 34.5557 83.4403 34.9214 82.1146 34.9214ZM91.3704 27.55C90.6618 27.55 90.0904 27.8186 89.6561 28.3557C89.2218 28.8929 89.0047 29.6186 89.0047 30.5329C89.0047 31.5043 89.2732 32.3729 89.8104 33.1386C90.3589 33.8929 90.9761 34.27 91.6618 34.27C92.6561 34.27 93.4561 33.8929 94.0618 33.1386L94.4732 33.3443C94.1418 33.8929 93.7075 34.2929 93.1704 34.5443C92.6447 34.7957 91.9475 34.9214 91.0789 34.9214C90.6447 34.9214 90.2275 34.8586 89.8275 34.7329C89.4275 34.5957 89.0332 34.3786 88.6447 34.0814C88.2561 33.7729 87.9475 33.3214 87.7189 32.7271C87.4904 32.1329 87.3761 31.4243 87.3761 30.6014C87.3761 29.6071 87.7247 28.7671 88.4218 28.0814C89.1304 27.3843 90.0561 27.0357 91.1989 27.0357C92.1018 27.0357 92.7989 27.19 93.2904 27.4986C93.7818 27.8071 94.0275 28.2586 94.0275 28.8529C94.0275 29.1157 93.9589 29.3271 93.8218 29.4871C93.6847 29.6357 93.5075 29.71 93.2904 29.71C93.0847 29.71 92.9018 29.6586 92.7418 29.5557C92.5932 29.4529 92.5189 29.3043 92.5189 29.11C92.5189 28.87 92.5761 28.6929 92.6904 28.5786C92.8161 28.4643 92.9589 28.4071 93.1189 28.4071C92.9704 27.8357 92.3875 27.55 91.3704 27.55ZM95.2706 34.75V34.39C95.8878 34.39 96.2478 34.2757 96.3506 34.0471V25.1671C95.6421 25.11 95.2821 25.0814 95.2706 25.0814V24.6871C95.4878 24.6871 95.9106 24.5671 96.5392 24.3271C97.1792 24.0757 97.6306 23.95 97.8935 23.95V34.0471C97.9964 34.2757 98.3564 34.39 98.9735 34.39V34.75H95.2706ZM100.225 34.75V34.39C100.499 34.39 100.716 34.3729 100.876 34.3386L98.0135 30.3957L101.048 27.67C100.876 27.6014 100.596 27.5671 100.208 27.5671V27.2071H102.899V27.5671C102.476 27.5671 102.168 27.6414 101.974 27.79L99.5392 29.9671L102.488 34.0643C102.648 34.2814 103.008 34.39 103.568 34.39V34.75H100.225ZM105.419 28.4757C105.579 28.4757 105.716 28.5329 105.83 28.6471C105.956 28.7614 106.019 28.9386 106.019 29.1786C106.019 29.3729 105.939 29.5214 105.779 29.6243C105.63 29.7271 105.453 29.7786 105.247 29.7786C105.03 29.7786 104.853 29.7043 104.716 29.5557C104.579 29.3957 104.51 29.1843 104.51 28.9214C104.51 28.3271 104.756 27.8643 105.247 27.5329C105.739 27.2014 106.436 27.0357 107.339 27.0357C108.402 27.0357 109.179 27.2986 109.67 27.8243C110.173 28.35 110.425 29.0471 110.425 29.9157V33.31C110.425 33.6757 110.482 33.9443 110.596 34.1157C110.722 34.2871 110.87 34.3729 111.042 34.3729C111.19 34.3729 111.322 34.3329 111.436 34.2529C111.562 34.1729 111.625 34.0757 111.625 33.9614H111.933C111.933 34.2814 111.813 34.5157 111.573 34.6643C111.345 34.8129 110.939 34.8871 110.356 34.8871C109.785 34.8871 109.379 34.6529 109.139 34.1843C108.465 34.6757 107.625 34.9214 106.619 34.9214C104.905 34.9214 104.047 34.2243 104.047 32.83C104.047 32.5329 104.15 32.2643 104.356 32.0243C104.573 31.7843 104.882 31.5843 105.282 31.4243C105.682 31.2643 106.059 31.1386 106.413 31.0471C106.767 30.9443 107.207 30.8357 107.733 30.7214C108.27 30.5957 108.653 30.4986 108.882 30.43C108.882 29.47 108.756 28.7671 108.505 28.3214C108.253 27.8757 107.807 27.6529 107.167 27.6529C106.139 27.6529 105.556 27.9271 105.419 28.4757ZM108.985 33.7557C108.916 33.5043 108.882 33.1957 108.882 32.83V30.8071C108.756 30.8529 108.539 30.9157 108.23 30.9957C107.933 31.0757 107.687 31.1443 107.493 31.2014C107.31 31.2586 107.087 31.3443 106.825 31.4586C106.562 31.5729 106.356 31.6871 106.207 31.8014C106.059 31.9157 105.927 32.07 105.813 32.2643C105.699 32.4471 105.642 32.6471 105.642 32.8643C105.642 33.4129 105.745 33.7957 105.95 34.0129C106.167 34.23 106.487 34.3386 106.91 34.3386C107.665 34.3386 108.356 34.1443 108.985 33.7557Z" fill="white"/>
</g>
<defs>
<linearGradient id="paint0_linear_25_22" x1="10.328" y1="21.8444" x2="46.1537" y2="26.5941" gradientUnits="userSpaceOnUse">
<stop stop-color="#056CAC"/>
<stop offset="0.432866" stop-color="#0077C0"/>
<stop offset="1" stop-color="#6CB4EE"/>
</linearGradient>
<linearGradient id="paint1_linear_25_22" x1="46.7938" y1="30.2152" x2="64.8023" y2="32.6871" gradientUnits="userSpaceOnUse">
<stop stop-color="#056CAC"/>
<stop offset="0.432866" stop-color="#0077C0"/>
<stop offset="1" stop-color="#6CB4EE"/>
</linearGradient>
<linearGradient id="paint2_linear_25_22" x1="67.3346" y1="19.0447" x2="95.5821" y2="22.8525" gradientUnits="userSpaceOnUse">
<stop stop-color="#056CAC"/>
<stop offset="0.432866" stop-color="#0077C0"/>
<stop offset="1" stop-color="#6CB4EE"/>
</linearGradient>
<linearGradient id="paint3_linear_25_22" x1="91.7579" y1="31.7653" x2="116.17" y2="35.0981" gradientUnits="userSpaceOnUse">
<stop stop-color="#056CAC"/>
<stop offset="0.432866" stop-color="#0077C0"/>
<stop offset="1" stop-color="#6CB4EE"/>
</linearGradient>
<clipPath id="clip0_25_22">
<rect width="250" height="57.1429" fill="white"/>
</clipPath>
</defs>
</svg>
